<?xml version="1.0" encoding="UTF-8" standalone="no"?>
<!DOCTYPE svg PUBLIC "-//W3C//DTD SVG 1.1//EN" "//www.w3.org/Graphics/SVG/1.1/DTD/svg11.dtd">
<svg width="100%" height="100%" viewBox="0 0 512 512" version="1.1" xmlns="//www.w3.org/2000/svg" xmlns:xlink="//www.w3.org/1999/xlink" xml:space="preserve" xmlns:serif="//www.serif.com/" style="fill-rule:evenodd;clip-rule:evenodd;stroke-linejoin:round;stroke-miterlimit:2;">
    <path d="M370.836,117.043C370.836,113.246 367.313,110.281 364.535,110.281C363.887,110.281 363.238,110.375 362.777,110.746L339.25,126.027C337.121,127.418 336.379,129.641 336.379,131.215C336.379,132.789 337.121,135.012 339.25,136.402L362.777,151.684C363.238,152.055 363.887,152.148 364.535,152.148C367.313,152.148 370.836,149.184 370.836,145.387C370.836,143.813 370.188,142.422 369.168,141.773L352.863,131.215L369.168,120.656C370.184,120.008 370.836,118.617 370.836,117.043Z" style="fill:rgb(172,50,228);fill-rule:nonzero;"/>
    <path d="M417.426,85.367C415.758,85.367 414.273,86.105 413.535,87.684L381.023,154.461C380.746,155.016 380.559,155.664 380.559,156.223C380.559,158.535 382.598,161.129 385.75,161.129C387.508,161.129 389.27,160.203 389.918,158.816L422.52,92.035C422.797,91.48 422.891,90.832 422.891,90.273C422.887,87.313 420.016,85.367 417.426,85.367Z" style="fill:rgb(172,50,228);fill-rule:nonzero;"/>
    <path d="M464.199,126.027L440.676,110.746C440.211,110.375 439.563,110.281 438.914,110.281C436.137,110.281 432.617,113.246 432.617,117.043C432.617,118.617 433.266,120.008 434.285,120.656L450.586,131.215L434.285,141.773C433.266,142.422 432.617,143.813 432.617,145.387C432.617,149.184 436.137,152.148 438.914,152.148C439.563,152.148 440.211,152.055 440.676,151.684L464.199,136.402C466.332,135.012 467.07,132.789 467.07,131.215C467.07,129.641 466.332,127.418 464.199,126.027Z" style="fill:rgb(172,50,228);fill-rule:nonzero;"/>
    <path d="M475.734,37.289L314.25,37.289C305.906,15.508 284.777,0 260.094,0L151.781,0C119.824,0 93.82,26.004 93.82,57.961L93.82,123.777C87.359,129.344 84.355,138.051 85.945,146.816L90.203,170.246C91.734,178.293 96.008,182.43 99.32,184.48C103.027,186.773 107.141,187.531 110.918,187.551L110.918,191.715C110.918,212.84 123.242,236.121 144.73,255.594C148.777,259.258 152.984,262.637 157.273,265.691L157.273,278.254C157.273,282.082 154.543,285.367 150.777,286.066C150.602,286.098 150.43,286.137 150.258,286.18C150.129,286.215 137.254,289.57 120.422,294.344L65.426,294.344C59.242,294.344 53.277,296.941 49.063,301.465C44.848,305.988 42.684,312.125 43.125,318.293L43.273,320.41C18.676,332.746 3.199,354.863 1.723,380C1.719,380.105 1.715,380.211 1.711,380.316L0.004,483.555C-0.09,491.125 2.793,498.262 8.109,503.648C13.434,509.035 20.531,512 28.105,512L383.773,512C391.344,512 398.445,509.035 403.766,503.648C409.086,498.262 411.969,491.129 411.875,483.523L410.168,380.316C410.164,380.211 410.16,380.105 410.152,380C408.637,354.137 392.301,331.473 366.449,319.367C365.977,319.145 365.48,318.918 364.969,318.688L364.996,318.293C365.434,312.125 363.27,305.992 359.059,301.465C354.844,296.941 348.879,294.344 342.695,294.344L291.457,294.344C274.629,289.57 261.75,286.215 261.621,286.184C261.449,286.137 261.277,286.098 261.102,286.066C257.336,285.367 254.605,282.082 254.605,278.254L254.605,265.695C258.895,262.637 263.102,259.258 267.148,255.594C280.805,243.219 290.762,229.305 296.203,215.383L344.934,215.383L336.422,249.738C335.004,255.469 337.277,261.258 342.215,264.488C344.535,266.008 347.137,266.762 349.727,266.762C352.656,266.762 355.57,265.801 358.055,263.891L421.203,215.383L475.734,215.383C495.496,215.383 511.57,199.309 511.57,179.547L511.57,73.125C511.57,53.367 495.496,37.289 475.734,37.289ZM300.977,136.734C303.844,135.758 306.559,135.355 308.328,135.195C310.684,137.285 311.793,140.727 311.176,144.133L306.941,167.445C306.324,170.699 305.074,171.473 304.664,171.727C303.793,172.266 302.508,172.543 300.969,172.559L300.977,136.734ZM108.82,57.961C108.82,34.273 128.094,15 151.781,15L260.098,15C283.785,15 303.059,34.273 303.059,57.961L303.059,120.801C299.348,121.457 294.727,122.715 290.215,125.121L290.215,79.422C290.215,62.988 276.844,49.617 260.41,49.617L240.141,49.617C233.113,49.617 226.25,52.066 220.809,56.512L218.824,58.137C215.199,61.102 210.621,62.734 205.938,62.734C201.254,62.734 196.68,61.102 193.055,58.141L191.066,56.512C185.629,52.066 178.762,49.617 171.734,49.617L151.469,49.617C135.035,49.617 121.664,62.984 121.664,79.422L121.664,125.117C117.152,122.715 112.531,121.453 108.82,120.801L108.82,57.961ZM107.215,171.727C106.805,171.473 105.555,170.699 104.949,167.508L100.703,144.137C100.086,140.73 101.195,137.293 103.543,135.199C105.313,135.359 108.031,135.754 110.902,136.73L110.91,172.559C109.375,172.543 108.09,172.266 107.215,171.727ZM40.855,491.566C40.855,493.449 41.113,495.27 41.59,497L28.105,497C24.574,497 21.266,495.617 18.781,493.105C16.301,490.594 14.961,487.266 15,483.77L16.707,380.727C17.816,362.719 27.797,347.105 44.449,336.895L53.605,465.367C53.773,467.727 54.313,469.98 55.156,472.078C46.875,474.688 40.855,482.438 40.855,491.566ZM354.512,465.367L363.816,334.824C382.637,344.922 393.984,361.449 395.172,380.727L396.879,483.738C396.918,487.266 395.574,490.594 393.098,493.105C390.613,495.617 387.305,497 383.773,497L370.289,497C370.77,495.27 371.023,493.449 371.023,491.566C371.023,481.203 363.27,472.621 353.258,471.313C353.934,469.434 354.367,467.441 354.512,465.367ZM356.023,491.566C356.023,494.563 353.586,497 350.594,497L61.285,497C58.293,497 55.855,494.563 55.855,491.566C55.855,488.574 58.293,486.137 61.285,486.137L350.594,486.137C353.586,486.137 356.023,488.574 356.023,491.566ZM348.082,311.688C349.488,313.199 350.184,315.164 350.035,317.227L339.551,464.305C339.277,468.137 336.055,471.137 332.211,471.137L75.906,471.137C72.066,471.137 68.844,468.137 68.566,464.301L58.086,317.227C57.938,315.164 58.633,313.199 60.039,311.687C61.449,310.176 63.359,309.344 65.426,309.344L342.695,309.344C344.758,309.344 346.672,310.176 348.082,311.687ZM246.195,294.344L165.684,294.344C169.785,290.172 172.273,284.461 172.273,278.254L172.273,274.898C184.098,281.02 195.848,284.453 205.937,284.453C216.027,284.453 227.777,281.02 239.605,274.898L239.605,278.254C239.605,284.461 242.094,290.172 246.195,294.344ZM257.074,244.477C240.328,259.648 220.258,269.453 205.937,269.453C191.621,269.453 171.551,259.648 154.805,244.477C136.445,227.848 125.918,208.613 125.918,191.711L125.902,144.461C126,144.461 126.098,144.465 126.195,144.465C127.551,144.465 128.918,144.199 130.227,143.652C134.137,142.02 136.664,138.227 136.664,133.992L136.664,79.422C136.664,71.258 143.305,64.617 151.469,64.617L171.738,64.617C175.312,64.617 178.805,65.863 181.57,68.125L183.562,69.754C189.859,74.898 197.805,77.734 205.937,77.734C214.07,77.734 222.02,74.898 228.316,69.75L230.305,68.125C233.07,65.863 236.566,64.617 240.141,64.617L260.406,64.617C268.57,64.617 275.215,71.258 275.215,79.422L275.215,133.992C275.215,138.23 277.738,142.02 281.652,143.652C283.051,144.238 284.523,144.5 285.973,144.461L285.961,191.715C285.965,208.613 275.434,227.848 257.074,244.477ZM496.57,179.547C496.57,191.035 487.227,200.383 475.734,200.383L418.656,200.383C417.004,200.383 415.398,200.93 414.09,201.938L351.879,249.723L361.797,209.688C362.352,207.449 361.848,205.078 360.426,203.262C359.004,201.445 356.824,200.383 354.52,200.383L300.297,200.383C300.738,197.465 300.965,194.57 300.965,191.715L300.965,187.551C304.738,187.531 308.852,186.773 312.559,184.48C315.875,182.43 320.148,178.293 321.688,170.188L325.934,146.816C327.527,138.051 324.516,129.34 318.059,123.777L318.059,57.961C318.059,56.051 317.965,54.156 317.781,52.289L475.734,52.289C487.227,52.289 496.57,61.637 496.57,73.125L496.57,179.547Z" style="fill:rgb(172,50,228);fill-rule:nonzero;"/>
    <path d="M205.938,424.367C221.484,424.367 234.133,411.719 234.133,396.172C234.133,380.625 221.484,367.977 205.938,367.977C190.391,367.977 177.742,380.625 177.742,396.172C177.742,411.719 190.391,424.367 205.938,424.367ZM205.938,382.977C213.215,382.977 219.133,388.898 219.133,396.172C219.133,403.449 213.215,409.367 205.938,409.367C198.664,409.367 192.742,403.449 192.742,396.172C192.742,388.898 198.664,382.977 205.938,382.977Z" style="fill:rgb(172,50,228);fill-rule:nonzero;"/>
</svg>
