<?xml version="1.0" encoding="UTF-8" standalone="no"?>
<!DOCTYPE svg PUBLIC "-//W3C//DTD SVG 1.1//EN" "//www.w3.org/Graphics/SVG/1.1/DTD/svg11.dtd">
<svg width="100%" height="100%" viewBox="0 0 512 512" version="1.1" xmlns="//www.w3.org/2000/svg" xmlns:xlink="//www.w3.org/1999/xlink" xml:space="preserve" xmlns:serif="//www.serif.com/" style="fill-rule:evenodd;clip-rule:evenodd;stroke-linejoin:round;stroke-miterlimit:2;">
    <g transform="matrix(1,0,0,1,0,18)">
        <path d="M494.5,34.936L17.5,34.936C7.851,34.936 0,42.787 0,52.436L0,114.031C0,123.728 15,123.728 15,114.031L15,52.436C15,51.058 16.121,49.936 17.5,49.936L494.5,49.936C495.879,49.936 497,51.058 497,52.436L497,418.175C497,419.553 495.879,420.675 494.5,420.675L398.388,420.675L398.388,405.069L473.822,405.069C477.965,405.069 481.322,401.711 481.322,397.569L481.322,319.03C481.322,309.333 466.322,309.333 466.322,319.03L466.322,390.069L398.388,390.069L398.388,356.792C398.632,356.813 398.878,356.834 399.109,356.855C405.335,357.402 413.079,358.083 418.444,352.708C423.803,347.339 423.125,339.587 422.58,333.358C421.993,326.673 422.625,324.843 427.763,320.572C440.992,309.572 441.238,297.794 427.763,286.592C422.625,282.318 421.996,280.49 422.58,273.804C424.048,257.027 416.212,248.805 399.109,250.308C392.434,250.894 390.623,250.26 386.367,245.121C375.384,231.861 363.598,231.616 352.411,245.121C348.155,250.259 346.345,250.896 339.67,250.308C322.881,248.833 314.7,256.713 316.198,273.804C316.782,280.491 316.153,282.318 311.015,286.592C297.786,297.591 297.541,309.371 311.015,320.572C316.153,324.846 316.782,326.674 316.198,333.36C314.623,351.329 323.205,358.277 340.388,356.793L340.388,390.071L45.679,390.071L45.679,80.541L466.322,80.541L466.322,279.03C466.322,288.727 481.322,288.727 481.322,279.03L481.322,73.041C481.322,68.899 477.965,65.541 473.822,65.541L38.179,65.541C34.036,65.541 30.679,68.899 30.679,73.041L30.679,397.569C30.679,401.711 34.036,405.069 38.179,405.069L340.388,405.069L340.388,420.675L17.5,420.675C16.121,420.675 15,419.553 15,418.175L15,152.03C15,142.333 0,142.333 0,152.03L0,418.175C0,427.824 7.851,435.675 17.5,435.675L340.388,435.675L340.388,469.625C341.456,475.789 345.011,478.056 351.051,476.425L369.388,467.896L387.725,476.425C392.262,478.535 398.388,475.2 398.388,469.625L398.388,435.675L494.5,435.675C504.149,435.675 512,427.824 512,418.175L512,52.436C512,42.786 504.149,34.936 494.5,34.936ZM338.355,341.911C330.847,342.572 330.483,342.17 331.139,334.666C332.147,323.149 329.498,316.429 320.603,309.035C314.517,303.974 314.518,303.185 320.603,298.124C329.498,290.73 332.148,284.01 331.139,272.494C330.483,264.989 330.847,264.591 338.355,265.248C349.873,266.263 356.584,263.594 363.961,254.687C369.002,248.603 369.773,248.603 374.814,254.687C382.193,263.594 388.902,266.259 400.42,265.248C407.929,264.587 408.292,264.989 407.636,272.493C406.628,284.01 409.277,290.729 418.172,298.123C424.257,303.184 424.26,303.975 418.171,309.035C409.276,316.43 406.626,323.147 407.635,334.664C408.294,342.168 407.928,342.571 400.421,341.911C395.71,341.497 390.366,341.027 385.662,342.981C381.109,344.872 377.908,348.735 374.813,352.472C373.355,354.232 370.694,357.445 369.386,358.02C368.079,357.445 365.418,354.232 363.96,352.472C360.865,348.736 357.665,344.872 353.111,342.981C348.257,341.501 343.338,341.144 338.355,341.911ZM372.551,452.825C370.545,451.892 368.231,451.892 366.225,452.825L355.388,457.866L355.388,365.517C358.947,369.43 363.338,373.063 369.388,373.063C375.438,373.063 379.829,369.431 383.388,365.518L383.388,457.866L372.551,452.825Z" style="fill:rgb(172,50,228);fill-rule:nonzero;"/>
        <path d="M97.263,143.321L355.81,143.321C365.507,143.321 365.507,128.321 355.81,128.321L97.263,128.321C87.565,128.321 87.565,143.321 97.263,143.321Z" style="fill:rgb(172,50,228);fill-rule:nonzero;"/>
        <path d="M422.237,181.439C422.237,177.297 418.88,173.939 414.737,173.939L97.263,173.939C87.566,173.939 87.566,188.939 97.263,188.939L414.738,188.939C418.88,188.939 422.237,185.581 422.237,181.439Z" style="fill:rgb(172,50,228);fill-rule:nonzero;"/>
        <path d="M285.137,227.056C285.137,222.914 281.78,219.556 277.637,219.556L97.263,219.556C87.566,219.556 87.566,234.556 97.263,234.556L277.637,234.556C281.779,234.556 285.137,231.198 285.137,227.056Z" style="fill:rgb(172,50,228);fill-rule:nonzero;"/>
        <path d="M186.651,331.598C182.562,331.605 178.472,331.61 174.383,331.613C166.516,331.619 162.185,329.522 160.578,321.18C159.111,313.565 148.127,314.535 146.114,321.18C145.223,324.123 140.723,332.548 136.792,331.859C134.709,331.494 133.799,328.281 133.029,326.617C131.53,323.378 130.438,319.945 129.503,316.505C125.555,301.971 124.767,286.796 122.297,271.988C120.865,263.401 107.776,265.829 107.565,273.982C106.893,299.953 102.647,325.568 93.401,349.911C89.97,358.944 104.465,362.85 107.865,353.899C111.43,344.513 114.26,334.902 116.456,325.148C117.634,328.702 119.039,332.188 120.754,335.579C125.134,344.235 134.067,349.356 143.625,345.506C147.036,344.132 150.148,341.73 152.797,338.807C159.893,346.99 170.45,346.619 180.299,346.607C195.146,346.588 209.993,346.553 224.841,346.512C234.492,346.485 234.51,331.485 224.841,331.512C212.111,331.548 199.381,331.577 186.651,331.598Z" style="fill:rgb(172,50,228);fill-rule:nonzero;"/>
        <path d="M369.388,332.874C385.541,332.874 398.683,319.733 398.683,303.58C398.683,287.427 385.541,274.286 369.388,274.286C353.236,274.286 340.094,287.428 340.094,303.58C340.094,319.732 353.235,332.874 369.388,332.874ZM369.388,289.286C377.27,289.286 383.683,295.699 383.683,303.58C383.683,311.461 377.27,317.874 369.388,317.874C361.506,317.874 355.094,311.462 355.094,303.58C355.094,295.698 361.506,289.286 369.388,289.286Z" style="fill:rgb(172,50,228);fill-rule:nonzero;"/>
    </g>
</svg>
