<?xml version="1.0" encoding="UTF-8" standalone="no"?>
<!DOCTYPE svg PUBLIC "-//W3C//DTD SVG 1.1//EN" "http://www.w3.org/Graphics/SVG/1.1/DTD/svg11.dtd">
<svg width="100%" height="100%" viewBox="0 0 512 512" version="1.1" xmlns="http://www.w3.org/2000/svg" xmlns:xlink="http://www.w3.org/1999/xlink" xml:space="preserve" xmlns:serif="http://www.serif.com/" style="fill-rule:evenodd;clip-rule:evenodd;stroke-linejoin:round;stroke-miterlimit:2;">
    <g>
        <g>
            <path d="M469.333,0L42.667,0C19.14,0 0,19.14 0,42.667L0,341.333C0,364.86 19.14,384 42.667,384L186.044,384L172.083,460.8L138.556,460.8C128.794,460.8 120.021,466.219 115.652,474.948C111.659,482.944 112.077,492.254 116.77,499.857C121.463,507.46 129.613,512 138.547,512L373.444,512C382.379,512 390.519,507.46 395.221,499.857C399.923,492.254 400.341,482.944 396.339,474.948C391.987,466.219 383.215,460.8 373.453,460.8L339.925,460.8L325.965,384L469.333,384C492.86,384 512,364.86 512,341.333L512,42.667C512,19.14 492.86,0 469.333,0ZM298.667,477.867L373.453,477.867C376.704,477.867 379.631,479.676 381.09,482.586C383.01,486.426 381.466,489.668 380.723,490.889C379.955,492.1 377.745,494.933 373.453,494.933L138.547,494.933C134.255,494.933 132.036,492.1 131.285,490.88C130.534,489.66 128.99,486.426 130.918,482.577C132.369,479.676 135.296,477.867 138.547,477.867L247.467,477.867C252.177,477.867 256,474.044 256,469.333C256,464.623 252.177,460.8 247.467,460.8L189.423,460.8L203.383,384L308.608,384L322.577,460.8L298.667,460.8C293.956,460.8 290.133,464.623 290.133,469.333C290.133,474.044 293.956,477.867 298.667,477.867ZM494.933,341.333C494.933,355.447 483.447,366.933 469.333,366.933L42.667,366.933C28.553,366.933 17.067,355.447 17.067,341.333L17.067,315.733L494.933,315.733L494.933,341.333ZM494.933,298.667L17.067,298.667L17.067,42.667C17.067,28.553 28.553,17.067 42.667,17.067L469.333,17.067C483.447,17.067 494.933,28.553 494.933,42.667L494.933,298.667Z" style="fill:rgb(172,50,228);fill-rule:nonzero;"/>
        </g>
    </g>
    <g>
        <g>
            <path d="M469.333,34.133L298.667,34.133C293.956,34.133 290.133,37.956 290.133,42.667L290.133,273.067C290.133,277.777 293.956,281.6 298.667,281.6L469.333,281.6C474.044,281.6 477.867,277.777 477.867,273.067L477.867,42.667C477.867,37.956 474.044,34.133 469.333,34.133ZM460.8,264.533L307.2,264.533L307.2,51.2L460.8,51.2L460.8,264.533Z" style="fill:rgb(172,50,228);fill-rule:nonzero;"/>
        </g>
        <g transform="matrix(5.92003e-17,-0.966814,0.966814,5.92003e-17,1.4936,532.676)">
            <path d="M469.333,34.133L298.667,34.133C293.956,34.133 290.133,37.956 290.133,42.667L290.133,273.067C290.133,277.777 293.956,281.6 298.667,281.6L469.333,281.6C474.044,281.6 477.867,277.777 477.867,273.067L477.867,42.667C477.867,37.956 474.044,34.133 469.333,34.133ZM460.8,264.533L307.2,264.533L307.2,51.2L460.8,51.2L460.8,264.533Z" style="fill:rgb(172,50,228);fill-rule:nonzero;"/>
        </g>
        <g transform="matrix(9.1318e-17,1.49134,-1.24623,7.63093e-17,372.506,-79.8184)">
            <path d="M157.299,148.524C158.255,146.611 159.981,145.439 161.844,145.439C163.707,145.439 165.433,146.611 166.39,148.524C171.947,159.638 181.311,178.365 186.98,189.703C187.959,191.662 187.983,194.099 187.042,196.085C186.101,198.07 184.341,199.297 182.434,199.297C171.207,199.297 152.482,199.297 141.254,199.297C139.347,199.297 137.587,198.07 136.646,196.085C135.706,194.099 135.729,191.662 136.709,189.703C142.378,178.365 151.741,159.638 157.299,148.524ZM175.22,188.063L161.844,161.312L148.468,188.063L175.22,188.063Z" style="fill:rgb(172,50,228);"/>
        </g>
    </g>
    <g>
        <g>
            <path d="M384,76.8L332.8,76.8C328.09,76.8 324.267,80.623 324.267,85.333C324.267,90.044 328.09,93.867 332.8,93.867L384,93.867C388.71,93.867 392.533,90.044 392.533,85.333C392.533,80.623 388.71,76.8 384,76.8Z" style="fill:rgb(172,50,228);fill-rule:nonzero;"/>
        </g>
    </g>
    <g>
        <g>
            <path d="M435.2,110.933L332.8,110.933C328.09,110.933 324.267,114.756 324.267,119.467C324.267,124.177 328.09,128 332.8,128L435.2,128C439.91,128 443.733,124.177 443.733,119.467C443.733,114.756 439.91,110.933 435.2,110.933Z" style="fill:rgb(172,50,228);fill-rule:nonzero;"/>
        </g>
    </g>
    <g>
        <g>
            <path d="M384,145.067L332.8,145.067C328.09,145.067 324.267,148.89 324.267,153.6C324.267,158.31 328.09,162.133 332.8,162.133L384,162.133C388.71,162.133 392.533,158.31 392.533,153.6C392.533,148.89 388.71,145.067 384,145.067Z" style="fill:rgb(172,50,228);fill-rule:nonzero;"/>
        </g>
    </g>
    <g>
        <g>
            <path d="M435.2,179.2L332.8,179.2C328.09,179.2 324.267,183.023 324.267,187.733C324.267,192.444 328.09,196.267 332.8,196.267L435.2,196.267C439.91,196.267 443.733,192.444 443.733,187.733C443.733,183.023 439.91,179.2 435.2,179.2Z" style="fill:rgb(172,50,228);fill-rule:nonzero;"/>
        </g>
    </g>
    <g>
        <g>
            <path d="M384,213.333L332.8,213.333C328.09,213.333 324.267,217.156 324.267,221.867C324.267,226.577 328.09,230.4 332.8,230.4L384,230.4C388.71,230.4 392.533,226.577 392.533,221.867C392.533,217.156 388.71,213.333 384,213.333Z" style="fill:rgb(172,50,228);fill-rule:nonzero;"/>
        </g>
    </g>
    <g>
        <g>
            <path d="M273.067,332.8L238.933,332.8C234.223,332.8 230.4,336.623 230.4,341.333C230.4,346.044 234.223,349.867 238.933,349.867L273.067,349.867C277.777,349.867 281.6,346.044 281.6,341.333C281.6,336.623 277.777,332.8 273.067,332.8Z" style="fill:rgb(172,50,228);fill-rule:nonzero;"/>
        </g>
    </g>
</svg>
