<?xml version="1.0" encoding="UTF-8" standalone="no"?>
<!DOCTYPE svg PUBLIC "-//W3C//DTD SVG 1.1//EN" "//www.w3.org/Graphics/SVG/1.1/DTD/svg11.dtd">
<svg width="100%" height="100%" viewBox="0 0 400 400" version="1.1" xmlns="//www.w3.org/2000/svg" xmlns:xlink="//www.w3.org/1999/xlink" xml:space="preserve" xmlns:serif="//www.serif.com/" style="fill-rule:evenodd;clip-rule:evenodd;stroke-linejoin:round;stroke-miterlimit:2;">
    <g transform="matrix(2.08125,0,0,2.08125,0.20004,0.20004)">
        <rect x="21.456" y="33.042" width="150.171" height="124.249" style="fill:white;"/>
        <g transform="matrix(1.75755,0,0,1.75755,162.385,86.2966)">
            <path d="M0,11.042L-20.849,31.972C-21.222,32.344 -21.633,32.529 -22.085,32.529C-22.537,32.529 -22.909,32.344 -23.201,31.972L-29.738,25.593C-30.191,25.142 -30.416,24.676 -30.416,24.198C-30.416,23.799 -30.244,23.387 -29.898,22.962L-16.822,9.846L-29.898,-3.27C-30.191,-3.721 -30.351,-4.133 -30.376,-4.505C-30.351,-4.957 -30.15,-5.369 -29.778,-5.741L-24.157,-11.362C-23.865,-11.654 -23.56,-11.934 -23.24,-12.199C-22.922,-12.464 -22.497,-12.598 -21.965,-12.598C-21.593,-12.598 -21.247,-12.451 -20.929,-12.159C-20.609,-11.867 -20.305,-11.588 -20.012,-11.322L0,8.65C0.399,9.049 0.599,9.461 0.599,9.886C0.599,10.259 0.399,10.644 0,11.042M-35.278,-22.325L-60.474,33.367C-60.766,34.031 -61.045,34.49 -61.311,34.742C-61.577,34.995 -61.988,35.121 -62.546,35.121L-74.506,35.121C-75.596,35.121 -76.141,34.775 -76.141,34.084C-76.141,34.031 -76.127,33.978 -76.101,33.925L-75.98,33.367L-50.826,-22.325C-50.613,-22.803 -50.302,-23.215 -49.89,-23.561C-49.478,-23.906 -48.938,-24.079 -48.274,-24.079L-37.232,-24.079C-36.7,-24.079 -36.229,-23.973 -35.817,-23.76C-35.405,-23.547 -35.199,-23.242 -35.199,-22.843C-35.199,-22.55 -35.226,-22.378 -35.278,-22.325M-67.678,-48.896C-81.158,-48.896 -92.188,-37.867 -92.188,-24.387L-92.188,59.938L-7.863,59.938C5.617,59.938 16.646,48.908 16.646,35.428L16.646,-48.896L-67.678,-48.896Z" style="fill:rgb(217,27,92);fill-rule:nonzero;"/>
        </g>
    </g>
</svg>
